<svg xmlns="http://www.w3.org/2000/svg" xmlns:xlink="http://www.w3.org/1999/xlink" width="500" zoomAndPan="magnify" viewBox="0 0 375 374.999991" height="500" preserveAspectRatio="xMidYMid meet" version="1.0"><defs><clipPath id="039571c3d0"><path d="M 115 122 L 262 122 L 262 261.9375 L 115 261.9375 Z M 115 122 " clip-rule="nonzero"/></clipPath></defs><g clip-path="url(#039571c3d0)"><path fill="#c9e265" d="M 120.417969 171.570312 C 112.519531 191.238281 114.734375 214.6875 126.183594 232.488281 C 131.53125 240.832031 138.839844 247.996094 147.585938 252.632812 C 156.492188 257.351562 166.59375 259.335938 176.609375 260.4375 C 186.625 261.542969 196.855469 261.875 206.757812 259.917969 C 236.449219 254.03125 260.007812 225.878906 261.273438 195.566406 C 262.535156 165.257812 241.777344 135.511719 213.152344 125.699219 C 177.269531 113.429688 134.453125 136.617188 120.417969 171.570312 Z M 120.417969 171.570312 " fill-opacity="1" fill-rule="nonzero"/></g><path fill="#1e1e54" d="M 168.230469 197.054688 C 162.359375 197.28125 156.613281 198.238281 150.988281 199.925781 C 149.328125 200.429688 148.105469 202.28125 148.671875 204.023438 C 148.792969 204.445312 148.992188 204.828125 149.261719 205.171875 C 149.535156 205.515625 149.859375 205.796875 150.242188 206.011719 C 150.621094 206.230469 151.027344 206.367188 151.460938 206.425781 C 151.898438 206.484375 152.324219 206.457031 152.75 206.347656 C 155.355469 205.554688 158.003906 204.925781 160.6875 204.460938 C 161.242188 204.363281 161.800781 204.28125 162.363281 204.203125 L 163.070312 204.105469 L 164.160156 203.988281 C 165.515625 203.855469 166.871094 203.761719 168.230469 203.703125 C 169.964844 203.636719 171.632812 202.226562 171.546875 200.382812 C 171.46875 198.660156 170.09375 197.003906 168.230469 197.054688 Z M 168.230469 197.054688 " fill-opacity="1" fill-rule="nonzero"/><path fill="#1e1e54" d="M 184.667969 210.910156 C 184.628906 210.765625 184.582031 210.621094 184.667969 210.851562 Z M 184.667969 210.910156 " fill-opacity="1" fill-rule="nonzero"/><path fill="#1e1e54" d="M 183.066406 217.347656 C 184.761719 217.691406 186.726562 216.863281 187.148438 215.023438 C 187.523438 213.375 186.648438 211.296875 184.828125 210.933594 L 184.667969 210.933594 L 184.589844 210.753906 L 184.589844 210.710938 C 184.585938 210.695312 184.585938 210.679688 184.589844 210.664062 L 184.589844 210.628906 C 184.636719 210.472656 184.683594 210.308594 184.71875 210.15625 L 184.804688 210.039062 C 184.894531 209.914062 184.972656 209.777344 185.054688 209.644531 L 185.15625 209.542969 C 185.390625 209.300781 185.636719 209.078125 185.886719 208.855469 L 186.488281 208.382812 C 186.675781 208.234375 186.859375 208.082031 187.03125 207.914062 C 188.78125 206.15625 188.828125 203.871094 188.792969 201.542969 C 188.734375 199.476562 188.570312 197.417969 188.296875 195.367188 C 188.074219 193.652344 186.9375 191.957031 184.976562 192.042969 C 183.378906 192.113281 181.417969 193.519531 181.664062 195.367188 C 181.96875 197.660156 182.136719 199.960938 182.167969 202.269531 C 182.167969 202.5625 182.167969 202.871094 182.167969 203.144531 C 182.167969 203.21875 182.167969 203.285156 182.167969 203.351562 L 181.570312 203.859375 C 181.378906 204.011719 181.1875 204.15625 181.007812 204.316406 C 180.566406 204.714844 180.167969 205.148438 179.808594 205.621094 C 179.011719 206.582031 178.46875 207.675781 178.183594 208.894531 C 177.894531 210.113281 177.894531 211.332031 178.179688 212.550781 C 178.820312 214.789062 180.675781 216.875 183.066406 217.347656 Z M 185.03125 209.621094 Z M 184.617188 210.933594 C 184.648438 210.984375 184.636719 210.976562 184.617188 210.933594 Z M 184.617188 210.90625 Z M 184.667969 210.933594 C 184.703125 211.0625 184.726562 211.164062 184.667969 210.933594 C 185.027344 211.296875 184.78125 211.121094 184.671875 210.933594 Z M 184.703125 210.933594 C 184.773438 210.988281 184.792969 211.019531 184.703125 210.933594 Z M 184.640625 210.875 Z M 184.578125 210.773438 C 184.578125 210.800781 184.578125 210.824219 184.578125 210.851562 C 184.570312 210.8125 184.570312 210.769531 184.578125 210.730469 Z M 182.179688 203.273438 L 182.03125 203.402344 C 182.078125 203.371094 182.121094 203.335938 182.164062 203.296875 Z M 182.179688 203.273438 " fill-opacity="1" fill-rule="nonzero"/><path fill="#1e1e54" d="M 222.324219 202.792969 C 216.523438 200.488281 210.558594 198.75 204.429688 197.585938 C 202.726562 197.261719 200.769531 198.058594 200.347656 199.910156 C 199.976562 201.546875 200.839844 203.65625 202.667969 204.003906 C 208.796875 205.167969 214.757812 206.898438 220.554688 209.207031 C 222.171875 209.847656 224.269531 208.503906 224.640625 206.882812 C 225.058594 204.964844 224.054688 203.480469 222.324219 202.792969 Z M 222.324219 202.792969 " fill-opacity="1" fill-rule="nonzero"/><path fill="#1e1e54" d="M 201.210938 223.222656 C 192.46875 223.152344 183.734375 223.351562 175.011719 223.824219 C 173.277344 223.914062 171.609375 225.289062 171.691406 227.148438 C 171.769531 228.875 173.152344 230.574219 175.011719 230.476562 C 183.734375 230.015625 192.46875 229.816406 201.210938 229.875 C 201.652344 229.875 202.074219 229.792969 202.480469 229.625 C 202.886719 229.453125 203.246094 229.214844 203.558594 228.902344 C 203.871094 228.589844 204.109375 228.230469 204.277344 227.824219 C 204.445312 227.414062 204.53125 226.992188 204.53125 226.550781 C 204.53125 226.109375 204.445312 225.683594 204.277344 225.277344 C 204.109375 224.867188 203.871094 224.507812 203.558594 224.195312 C 203.246094 223.886719 202.886719 223.644531 202.480469 223.476562 C 202.074219 223.308594 201.652344 223.222656 201.210938 223.222656 Z M 201.210938 223.222656 " fill-opacity="1" fill-rule="nonzero"/></svg>