<svg xmlns="http://www.w3.org/2000/svg" xmlns:xlink="http://www.w3.org/1999/xlink" width="500" zoomAndPan="magnify" viewBox="0 0 375 374.999991" height="500" preserveAspectRatio="xMidYMid meet" version="1.0"><path fill="#d84423" d="M 195.847656 117.308594 C 169.109375 114.492188 141.03125 127.726562 127.792969 152.863281 C 112.507812 181.871094 120.507812 220.066406 148.5 240.265625 C 176.859375 260.730469 216.046875 255.742188 238.75 231.371094 C 258.386719 210.316406 262.503906 178.144531 249.109375 152.875 C 232.628906 121.777344 198.410156 117.578125 195.847656 117.308594 Z M 195.847656 117.308594 " fill-opacity="1" fill-rule="nonzero"/><path fill="#1e1e54" d="M 206.25 193.953125 C 205.796875 193.863281 205.347656 193.882812 204.902344 194.007812 L 181.515625 200.386719 L 175.722656 201.964844 C 173.738281 202.527344 171.667969 203.089844 171.039062 205.34375 C 170.183594 208.386719 171.511719 212.269531 173.015625 214.917969 C 180.417969 227.792969 199.523438 226.140625 208.050781 215.386719 C 209.207031 213.984375 210.109375 212.433594 210.75 210.734375 C 211.390625 209.03125 211.738281 207.273438 211.792969 205.457031 C 211.882812 202.042969 211.140625 198.25 209.199219 195.386719 C 208.886719 194.886719 208.460938 194.503906 207.929688 194.246094 C 207.398438 193.988281 206.839844 193.890625 206.25 193.953125 Z M 204.5625 210.3125 C 201.914062 214.675781 196.691406 217.523438 191.695312 218.160156 C 186.796875 218.792969 181.898438 217.140625 178.992188 213.402344 C 177.660156 211.738281 176.894531 209.84375 176.683594 207.722656 L 178.667969 207.15625 L 183.765625 205.773438 L 205.136719 199.949219 C 206.480469 203.261719 206.339844 207.367188 204.546875 210.316406 Z M 204.5625 210.3125 " fill-opacity="1" fill-rule="nonzero"/><path fill="#1e1e54" d="M 198.046875 171.945312 L 197.976562 172.636719 C 195.617188 172.535156 193.253906 172.511719 190.890625 172.535156 C 190.910156 172.199219 190.871094 171.867188 190.773438 171.542969 C 190.679688 171.21875 190.535156 170.917969 190.339844 170.644531 C 190.144531 170.367188 189.910156 170.132812 189.636719 169.9375 C 189.359375 169.742188 189.0625 169.59375 188.738281 169.5 C 187.078125 169.121094 185.769531 170.011719 185.175781 171.527344 C 185.027344 171.917969 184.902344 172.316406 184.804688 172.722656 C 183.449219 172.800781 182.101562 172.890625 180.746094 173.007812 L 180.816406 172.378906 L 127.179688 171.945312 L 126.308594 181.03125 L 132.371094 181.898438 L 132.371094 188.832031 L 140.160156 189.699219 L 140.160156 195.765625 L 164.828125 196.632812 L 165.261719 191 L 173.484375 189.699219 L 174.351562 180.597656 L 179.976562 179.730469 L 180.007812 179.480469 C 181.5625 179.339844 183.117188 179.226562 184.675781 179.136719 L 184.402344 179.242188 C 183 179.742188 181.707031 180.441406 180.527344 181.34375 C 179.992188 181.746094 179.519531 182.214844 179.113281 182.746094 C 178.707031 183.277344 178.378906 183.855469 178.132812 184.480469 C 177.882812 185.101562 177.726562 185.746094 177.652344 186.414062 C 177.582031 187.078125 177.601562 187.742188 177.714844 188.40625 C 177.882812 189.140625 178.179688 189.824219 178.605469 190.445312 C 179.03125 191.070312 179.558594 191.59375 180.183594 192.019531 C 180.804688 192.449219 181.484375 192.734375 182.222656 192.882812 C 182.960938 193.027344 183.699219 193.019531 184.433594 192.859375 C 185.929688 192.582031 186.910156 190.683594 186.460938 189.289062 C 186.363281 188.964844 186.214844 188.664062 186.015625 188.390625 C 185.816406 188.117188 185.574219 187.882812 185.292969 187.695312 C 185.011719 187.503906 184.707031 187.367188 184.378906 187.285156 C 184.046875 187.203125 183.714844 187.175781 183.378906 187.210938 C 183.378906 187.148438 183.378906 187.085938 183.378906 187.035156 L 183.433594 186.832031 C 183.433594 186.773438 183.519531 186.652344 183.574219 186.558594 C 183.628906 186.460938 183.777344 186.28125 183.792969 186.253906 C 183.808594 186.226562 183.945312 186.085938 184.023438 186.003906 C 184.101562 185.925781 184.503906 185.644531 184.394531 185.707031 C 184.519531 185.621094 184.648438 185.542969 184.777344 185.464844 C 185.496094 185.039062 186.257812 184.710938 187.0625 184.480469 C 188.269531 184.046875 189.484375 183.601562 190.121094 182.390625 C 190.757812 181.179688 190.585938 180.136719 190.453125 178.976562 C 192.769531 178.945312 195.085938 178.976562 197.398438 179.046875 L 197.203125 181.03125 L 203.265625 181.898438 L 203.265625 188.832031 L 211.054688 189.699219 L 211.054688 195.765625 L 235.726562 196.644531 L 236.160156 191.011719 L 244.382812 189.710938 L 245.25 180.609375 L 250.875 179.742188 L 251.742188 172.378906 Z M 198.046875 171.945312 " fill-opacity="1" fill-rule="nonzero"/></svg>