<svg xmlns="http://www.w3.org/2000/svg" xmlns:xlink="http://www.w3.org/1999/xlink" width="500" zoomAndPan="magnify" viewBox="0 0 375 374.999991" height="500" preserveAspectRatio="xMidYMid meet" version="1.0"><path fill="#ff914d" d="M 129.828125 237.769531 C 143.5 252.058594 164.472656 256.691406 184.234375 257.632812 C 197.953125 258.285156 212.5625 257.242188 223.8125 249.378906 C 229.226562 245.59375 233.554688 240.414062 237.269531 234.957031 C 262.355469 198.304688 253.890625 155.6875 214.449219 134.652344 C 180.488281 116.558594 134.25 144.257812 120.628906 177.511719 C 112.589844 197.160156 114.75 222.003906 129.828125 237.769531 Z M 129.828125 237.769531 " fill-opacity="1" fill-rule="nonzero"/><path fill="#1e1e54" d="M 188.472656 197.167969 C 188.804688 197.066406 189.105469 196.90625 189.371094 196.683594 C 189.640625 196.464844 189.855469 196.203125 190.023438 195.898438 C 190.1875 195.597656 190.292969 195.273438 190.332031 194.929688 C 190.371094 194.585938 190.34375 194.246094 190.253906 193.914062 C 190.160156 193.578125 190.011719 193.273438 189.800781 193 C 189.589844 192.726562 189.335938 192.5 189.035156 192.324219 C 188.738281 192.148438 188.417969 192.03125 188.074219 191.980469 C 187.734375 191.929688 187.394531 191.941406 187.054688 192.023438 C 186.996094 192.035156 186.9375 192.054688 186.882812 192.078125 L 186.828125 192.078125 L 186.445312 192.039062 L 186.148438 191.957031 L 186.03125 191.957031 C 185.996094 191.921875 185.957031 191.890625 185.914062 191.867188 L 185.59375 191.648438 C 185.503906 191.558594 185.308594 191.390625 185.3125 191.394531 L 185.210938 191.308594 C 185.097656 191.140625 185 190.96875 184.894531 190.769531 C 184.730469 190.328125 184.6875 189.878906 184.773438 189.417969 C 184.824219 189.207031 184.886719 189.007812 184.945312 188.800781 C 184.945312 188.734375 184.945312 188.71875 184.945312 188.71875 L 185.003906 188.605469 C 185.128906 188.375 185.257812 188.15625 185.390625 187.929688 C 185.417969 187.886719 185.441406 187.84375 185.464844 187.796875 C 185.464844 187.796875 185.464844 187.796875 185.519531 187.742188 C 185.660156 187.578125 185.804688 187.421875 185.960938 187.265625 L 186.289062 186.980469 L 186.65625 186.730469 C 186.878906 186.589844 187.109375 186.453125 187.328125 186.304688 C 187.90625 185.949219 188.394531 185.496094 188.792969 184.949219 C 189.195312 184.398438 189.472656 183.792969 189.632812 183.136719 C 189.804688 181.894531 189.851562 180.644531 189.773438 179.394531 C 189.773438 178.128906 189.773438 176.859375 189.773438 175.609375 C 189.789062 175.246094 189.734375 174.894531 189.605469 174.550781 C 189.476562 174.210938 189.289062 173.90625 189.035156 173.644531 C 188.78125 173.378906 188.488281 173.175781 188.152344 173.035156 C 187.816406 172.890625 187.46875 172.820312 187.101562 172.820312 C 186.738281 172.820312 186.386719 172.890625 186.050781 173.035156 C 185.714844 173.175781 185.421875 173.378906 185.167969 173.644531 C 184.917969 173.90625 184.726562 174.210938 184.597656 174.550781 C 184.46875 174.894531 184.414062 175.246094 184.429688 175.609375 C 184.429688 177.054688 184.429688 178.496094 184.429688 179.933594 C 184.429688 180.554688 184.480469 181.210938 184.429688 181.835938 L 184.398438 181.835938 C 182.191406 183.210938 180.429688 185.082031 179.695312 187.621094 C 179.507812 188.257812 179.402344 188.902344 179.382812 189.5625 C 179.359375 190.222656 179.421875 190.875 179.570312 191.519531 C 179.714844 192.164062 179.941406 192.78125 180.242188 193.367188 C 180.546875 193.953125 180.917969 194.492188 181.359375 194.984375 C 181.800781 195.472656 182.292969 195.894531 182.847656 196.246094 C 183.398438 196.597656 183.988281 196.871094 184.613281 197.0625 C 185.242188 197.253906 185.882812 197.359375 186.539062 197.378906 C 187.191406 197.398438 187.839844 197.328125 188.472656 197.167969 Z M 188.472656 197.167969 " fill-opacity="1" fill-rule="nonzero"/><path fill="#1e1e54" d="M 167.425781 185.285156 C 167.78125 185.28125 168.117188 185.210938 168.445312 185.074219 C 168.769531 184.9375 169.054688 184.742188 169.304688 184.492188 C 169.554688 184.246094 169.746094 183.957031 169.882812 183.632812 C 170.019531 183.308594 170.09375 182.96875 170.097656 182.617188 L 170.097656 175.523438 C 170.097656 175.171875 170.027344 174.828125 169.894531 174.503906 C 169.757812 174.175781 169.566406 173.890625 169.316406 173.640625 C 169.0625 173.390625 168.777344 173.195312 168.449219 173.0625 C 168.121094 172.925781 167.78125 172.859375 167.425781 172.859375 C 167.074219 172.859375 166.734375 172.925781 166.40625 173.0625 C 166.078125 173.195312 165.789062 173.390625 165.539062 173.640625 C 165.289062 173.890625 165.097656 174.175781 164.960938 174.503906 C 164.828125 174.828125 164.757812 175.171875 164.757812 175.523438 L 164.757812 182.617188 C 164.761719 182.96875 164.832031 183.308594 164.96875 183.632812 C 165.105469 183.957031 165.300781 184.246094 165.550781 184.492188 C 165.796875 184.742188 166.085938 184.9375 166.410156 185.074219 C 166.734375 185.210938 167.074219 185.28125 167.425781 185.285156 Z M 167.425781 185.285156 " fill-opacity="1" fill-rule="nonzero"/><path fill="#1e1e54" d="M 205.390625 185.660156 C 205.742188 185.65625 206.082031 185.585938 206.40625 185.449219 C 206.730469 185.308594 207.019531 185.117188 207.265625 184.867188 C 207.515625 184.621094 207.710938 184.332031 207.847656 184.007812 C 207.984375 183.683594 208.054688 183.347656 208.058594 182.996094 L 208.367188 175.519531 C 208.363281 175.164062 208.292969 174.828125 208.15625 174.503906 C 208.015625 174.179688 207.824219 173.890625 207.574219 173.640625 C 207.324219 173.394531 207.035156 173.199219 206.710938 173.0625 C 206.386719 172.925781 206.046875 172.855469 205.695312 172.851562 C 205.34375 172.859375 205.003906 172.929688 204.679688 173.066406 C 204.355469 173.203125 204.066406 173.394531 203.816406 173.644531 C 203.570312 173.894531 203.375 174.179688 203.238281 174.503906 C 203.101562 174.828125 203.03125 175.167969 203.027344 175.519531 L 202.71875 182.996094 C 202.722656 183.347656 202.792969 183.6875 202.929688 184.011719 C 203.066406 184.335938 203.261719 184.621094 203.511719 184.871094 C 203.761719 185.121094 204.046875 185.3125 204.375 185.449219 C 204.699219 185.585938 205.039062 185.65625 205.390625 185.660156 Z M 205.390625 185.660156 " fill-opacity="1" fill-rule="nonzero"/><path fill="#1e1e54" d="M 220.117188 193.597656 C 219.933594 193.292969 219.699219 193.039062 219.417969 192.828125 C 219.136719 192.617188 218.824219 192.464844 218.484375 192.375 C 218.140625 192.285156 217.796875 192.265625 217.445312 192.308594 C 217.097656 192.355469 216.769531 192.464844 216.460938 192.640625 C 214.753906 193.714844 212.992188 194.699219 211.179688 195.589844 C 209.367188 196.484375 207.511719 197.277344 205.617188 197.972656 C 203.71875 198.667969 201.792969 199.265625 199.832031 199.757812 C 197.875 200.25 195.894531 200.640625 193.894531 200.925781 C 191.894531 201.210938 189.882812 201.390625 187.867188 201.464844 C 185.847656 201.539062 183.828125 201.503906 181.8125 201.367188 C 179.796875 201.230469 177.792969 200.984375 175.804688 200.636719 C 173.816406 200.285156 171.847656 199.835938 169.90625 199.277344 C 167.78125 198.695312 165.734375 197.910156 163.761719 196.925781 C 161.726562 195.949219 159.921875 194.652344 158.347656 193.035156 C 158.097656 192.78125 157.808594 192.589844 157.480469 192.453125 C 157.152344 192.316406 156.808594 192.25 156.453125 192.25 C 156.097656 192.25 155.757812 192.316406 155.429688 192.453125 C 155.101562 192.589844 154.8125 192.78125 154.558594 193.035156 C 154.308594 193.285156 154.113281 193.574219 153.980469 193.902344 C 153.84375 194.230469 153.773438 194.570312 153.773438 194.925781 C 153.773438 195.28125 153.84375 195.621094 153.980469 195.949219 C 154.113281 196.277344 154.308594 196.566406 154.558594 196.820312 C 157.808594 200.152344 161.980469 202.277344 166.332031 203.769531 C 170.59375 205.1875 174.960938 206.109375 179.429688 206.539062 C 183.820312 206.984375 188.210938 206.964844 192.601562 206.484375 C 196.988281 206.003906 201.28125 205.074219 205.472656 203.691406 C 210.292969 202.105469 214.847656 199.964844 219.140625 197.261719 C 219.445312 197.082031 219.707031 196.847656 219.921875 196.566406 C 220.136719 196.285156 220.289062 195.972656 220.378906 195.628906 C 220.472656 195.285156 220.492188 194.9375 220.449219 194.585938 C 220.402344 194.234375 220.292969 193.90625 220.117188 193.597656 Z M 220.117188 193.597656 " fill-opacity="1" fill-rule="nonzero"/></svg>