<svg xmlns="http://www.w3.org/2000/svg" xmlns:xlink="http://www.w3.org/1999/xlink" width="500" zoomAndPan="magnify" viewBox="0 0 375 374.999991" height="500" preserveAspectRatio="xMidYMid meet" version="1.0"><defs><clipPath id="99e3546c8b"><path d="M 112.5 122 L 257 122 L 257 261.84375 L 112.5 261.84375 Z M 112.5 122 " clip-rule="nonzero"/></clipPath></defs><g clip-path="url(#99e3546c8b)"><path fill="#d86a23" d="M 163.519531 124.792969 C 145.707031 129.027344 129.152344 140.171875 120.570312 156.386719 C 114.28125 168.234375 112.511719 182.054688 113.019531 195.464844 C 113.550781 209.371094 116.714844 223.804688 125.6875 234.433594 C 135.621094 246.207031 151.042969 251.554688 165.746094 256.128906 C 174.972656 258.996094 184.445312 261.792969 194.109375 261.238281 C 200.636719 260.863281 207.003906 258.949219 212.976562 256.292969 C 236.03125 246.050781 253.683594 223.546875 256.480469 198.421875 C 262.488281 144.132812 211.207031 113.453125 163.519531 124.792969 Z M 163.519531 124.792969 " fill-opacity="1" fill-rule="nonzero"/></g><path fill="#1e1e54" d="M 207.777344 204.90625 C 207.550781 204.175781 207.125 203.589844 206.503906 203.152344 C 206.253906 202.566406 205.863281 202.105469 205.328125 201.761719 C 204.796875 201.417969 204.214844 201.253906 203.582031 201.265625 L 167.589844 203.605469 C 167.230469 203.613281 166.878906 203.675781 166.535156 203.796875 C 166.195312 203.914062 165.878906 204.082031 165.59375 204.304688 C 165.304688 204.523438 165.058594 204.78125 164.851562 205.078125 C 164.648438 205.378906 164.492188 205.699219 164.390625 206.046875 C 162.050781 216.058594 167.40625 227.355469 176.871094 231.589844 C 186.914062 236.078125 199.980469 233.269531 206.519531 224.121094 C 210.527344 218.480469 209.617188 211.136719 207.777344 204.90625 Z M 189.382812 226.933594 C 189.691406 226.882812 189.539062 226.933594 189.382812 226.933594 Z M 202.65625 216.011719 C 202.597656 216.71875 202.617188 216.355469 202.65625 216.203125 C 202.5625 216.796875 202.425781 217.382812 202.25 217.960938 C 202.140625 218.382812 201.984375 218.785156 201.777344 219.171875 C 201.269531 220.136719 200.632812 221.007812 199.863281 221.78125 C 199.472656 222.175781 199.070312 222.550781 198.648438 222.910156 L 198.128906 223.34375 C 198.054688 223.390625 197.667969 223.664062 197.632812 223.691406 C 196.820312 224.25 195.972656 224.753906 195.089844 225.195312 C 194.796875 225.34375 194.507812 225.484375 194.203125 225.617188 C 194.332031 225.554688 194.710938 225.425781 194.085938 225.660156 C 193.460938 225.894531 192.957031 226.082031 192.378906 226.242188 C 191.386719 226.542969 190.378906 226.773438 189.359375 226.933594 L 189.246094 226.933594 C 188.976562 226.964844 188.703125 226.992188 188.433594 227.011719 C 187.851562 227.058594 187.230469 227.074219 186.636719 227.074219 C 184.675781 227.113281 182.78125 226.78125 180.949219 226.082031 L 180.261719 225.824219 L 180.078125 225.746094 C 179.59375 225.511719 179.113281 225.277344 178.648438 225.015625 C 178.179688 224.753906 177.753906 224.476562 177.328125 224.183594 L 176.964844 223.925781 C 177.082031 224.003906 176.539062 223.585938 176.515625 223.570312 C 175.761719 222.929688 175.0625 222.234375 174.417969 221.488281 C 174.257812 221.3125 174.113281 221.128906 173.964844 220.949219 L 173.863281 220.820312 C 173.503906 220.304688 173.148438 219.796875 172.828125 219.257812 C 172.5625 218.808594 172.3125 218.351562 172.078125 217.890625 C 171.960938 217.65625 171.855469 217.421875 171.746094 217.179688 L 171.710938 217.109375 C 171.660156 216.964844 171.601562 216.824219 171.546875 216.679688 C 171.164062 215.65625 170.871094 214.613281 170.664062 213.542969 C 170.628906 213.367188 170.601562 213.195312 170.570312 213.019531 C 170.570312 212.96875 170.507812 212.476562 170.5 212.4375 C 170.453125 211.851562 170.4375 211.308594 170.441406 210.738281 C 170.441406 210.5 170.441406 210.265625 170.441406 210.03125 L 201.742188 208 C 201.945312 208.75 202.132812 209.503906 202.289062 210.269531 C 202.535156 211.316406 202.671875 212.375 202.703125 213.449219 C 202.703125 214 202.734375 214.546875 202.703125 215.097656 C 202.722656 215.410156 202.6875 215.710938 202.65625 216.011719 Z M 202.65625 216.011719 " fill-opacity="1" fill-rule="nonzero"/><path fill="#1e1e54" d="M 164.074219 187.132812 C 163.984375 186.640625 163.917969 186.144531 163.847656 185.644531 C 163.601562 183.734375 163.46875 181.820312 163.449219 179.894531 C 163.433594 178.984375 163.113281 178.207031 162.480469 177.554688 C 162.003906 177.082031 161.4375 176.78125 160.78125 176.648438 C 160.125 176.519531 159.488281 176.582031 158.867188 176.839844 C 158.25 177.09375 157.753906 177.5 157.378906 178.054688 C 157.003906 178.609375 156.816406 179.222656 156.808594 179.894531 C 156.851562 182.917969 157.136719 185.921875 157.675781 188.898438 C 157.917969 189.765625 158.425781 190.429688 159.199219 190.886719 C 159.578125 191.109375 159.984375 191.253906 160.421875 191.316406 C 160.855469 191.375 161.285156 191.351562 161.710938 191.242188 C 162.136719 191.132812 162.527344 190.945312 162.878906 190.683594 C 163.230469 190.417969 163.515625 190.097656 163.742188 189.71875 C 164.167969 188.898438 164.28125 188.035156 164.074219 187.132812 Z M 164.074219 187.132812 " fill-opacity="1" fill-rule="nonzero"/><path fill="#1e1e54" d="M 198.1875 185.011719 C 198.167969 185.464844 198.261719 185.890625 198.46875 186.289062 C 198.601562 186.707031 198.832031 187.066406 199.15625 187.359375 C 199.46875 187.667969 199.824219 187.910156 200.230469 188.078125 C 200.636719 188.246094 201.058594 188.328125 201.496094 188.328125 C 201.933594 188.328125 202.355469 188.246094 202.757812 188.078125 C 203.164062 187.910156 203.523438 187.667969 203.832031 187.359375 C 204.492188 186.71875 204.816406 185.941406 204.800781 185.019531 C 204.457031 182.3125 204.109375 179.601562 203.761719 176.894531 C 203.78125 176.441406 203.6875 176.011719 203.476562 175.613281 C 203.339844 175.191406 203.109375 174.835938 202.785156 174.539062 C 202.476562 174.234375 202.117188 173.996094 201.710938 173.828125 C 201.308594 173.664062 200.886719 173.578125 200.449219 173.578125 C 200.011719 173.578125 199.589844 173.664062 199.183594 173.828125 C 198.78125 173.996094 198.421875 174.234375 198.113281 174.539062 C 197.449219 175.179688 197.125 175.960938 197.140625 176.882812 C 197.484375 179.597656 197.832031 182.304688 198.1875 185.011719 Z M 198.1875 185.011719 " fill-opacity="1" fill-rule="nonzero"/><path fill="#1e1e54" d="M 183.671875 198.902344 C 185.425781 199.085938 187.066406 197.246094 186.992188 195.578125 C 186.902344 193.625 185.523438 192.457031 183.671875 192.261719 L 183.4375 192.261719 C 183.226562 192.214844 183.011719 192.1875 182.800781 192.140625 C 182.328125 192.039062 181.859375 191.921875 181.398438 191.777344 L 181.148438 191.695312 C 181.148438 191.5625 181.148438 191.433594 181.148438 191.304688 C 181.148438 191.175781 181.234375 190.894531 181.300781 190.71875 C 181.300781 190.613281 181.371094 190.511719 181.40625 190.414062 C 181.441406 190.3125 181.488281 190.25 181.5625 190.121094 C 181.640625 189.992188 181.761719 189.816406 181.855469 189.652344 L 181.9375 189.578125 C 182.609375 188.992188 183.238281 188.363281 183.820312 187.6875 C 184.664062 186.5 185.039062 185.175781 184.953125 183.71875 C 184.953125 181.554688 184.742188 179.386719 184.515625 177.238281 C 184.332031 175.484375 183.117188 173.828125 181.195312 173.914062 C 179.554688 173.984375 177.6875 175.382812 177.875 177.238281 C 178.007812 178.457031 178.113281 179.683594 178.191406 180.917969 C 178.230469 181.566406 178.261719 182.210938 178.289062 182.855469 C 178.289062 183.140625 178.289062 183.441406 178.289062 183.71875 C 178.289062 183.777344 178.289062 183.84375 178.289062 183.902344 L 178.050781 184.125 C 177.65625 184.449219 177.289062 184.804688 176.945312 185.1875 C 176.0625 186.234375 175.402344 187.402344 174.960938 188.699219 C 174.117188 191.121094 174.242188 194.328125 176.019531 196.304688 C 177.792969 198.28125 181.183594 198.644531 183.671875 198.902344 Z M 181.140625 192.035156 L 181.140625 192.0625 C 181.183594 192.191406 181.148438 192.246094 181.140625 192.035156 Z M 181.140625 192.035156 " fill-opacity="1" fill-rule="nonzero"/></svg>