<svg xmlns="http://www.w3.org/2000/svg" xmlns:xlink="http://www.w3.org/1999/xlink" width="500" zoomAndPan="magnify" viewBox="0 0 375 374.999991" height="500" preserveAspectRatio="xMidYMid meet" version="1.0"><path fill="#5271ff" d="M 185.808594 118.519531 C 164.699219 119.039062 146.90625 125.296875 129.632812 148.757812 C 112.5 172.027344 117.421875 206.589844 135.953125 228.207031 C 156.25 251.875 190.578125 257.332031 217.402344 245.082031 C 243.15625 233.320312 262.460938 204.582031 258.132812 174.765625 C 252.515625 136.09375 214.597656 117.816406 185.808594 118.519531 Z M 185.808594 118.519531 " fill-opacity="1" fill-rule="nonzero"/><path fill="#1e1e54" d="M 172.527344 179.3125 C 164.214844 181.707031 156.046875 184.53125 148.027344 187.78125 C 146.652344 188.34375 145.683594 189.613281 146.105469 191.167969 C 146.46875 192.476562 148.109375 193.652344 149.488281 193.09375 C 151.542969 192.261719 153.609375 191.457031 155.691406 190.683594 C 155.847656 196.628906 156.007812 202.574219 156.171875 208.523438 L 156.457031 218.984375 C 156.546875 222.273438 156.457031 225.621094 156.898438 228.894531 C 157.335938 232.171875 158.234375 237.070312 162.339844 237.363281 C 165.921875 237.597656 168.054688 234.125 168.539062 230.996094 C 169.042969 227.609375 168.628906 224.132812 168.539062 220.753906 C 168.421875 217.265625 168.304688 213.78125 168.179688 210.292969 C 167.90625 202.433594 167.613281 194.566406 167.3125 186.695312 C 169.542969 185.984375 171.785156 185.304688 174.03125 184.652344 C 177.386719 183.648438 175.941406 178.328125 172.527344 179.3125 Z M 172.527344 179.3125 " fill-opacity="1" fill-rule="nonzero"/><path fill="#1e1e54" d="M 232.15625 188.988281 C 225.554688 184.9375 218.53125 181.832031 211.09375 179.671875 C 210.742188 179.578125 210.386719 179.554688 210.027344 179.597656 C 209.664062 179.644531 209.328125 179.757812 209.011719 179.9375 C 208.695312 180.121094 208.425781 180.355469 208.203125 180.640625 C 207.976562 180.929688 207.816406 181.25 207.722656 181.601562 C 207.625 181.953125 207.597656 182.308594 207.644531 182.671875 C 207.6875 183.03125 207.800781 183.371094 207.980469 183.6875 C 208.160156 184.007812 208.390625 184.277344 208.679688 184.5 C 208.964844 184.726562 209.285156 184.886719 209.632812 184.984375 C 211.371094 185.488281 213.085938 186.054688 214.777344 186.679688 C 215.578125 200.167969 212.804688 213.679688 215.011719 227.105469 C 215.480469 229.929688 215.898438 233.882812 218.777344 235.347656 C 219.183594 235.542969 219.609375 235.667969 220.054688 235.726562 C 220.5 235.785156 220.945312 235.773438 221.386719 235.695312 C 221.828125 235.613281 222.246094 235.464844 222.644531 235.253906 C 223.039062 235.042969 223.394531 234.773438 223.707031 234.453125 C 224.914062 233.140625 225.550781 231.59375 225.625 229.8125 C 225.910156 226.660156 225.363281 223.3125 225.027344 220.183594 C 224.964844 219.621094 224.890625 219.054688 224.824219 218.464844 C 224.992188 213.203125 224.929688 207.929688 224.625 202.65625 C 224.480469 200.195312 224.292969 197.734375 224.0625 195.277344 C 223.898438 193.695312 223.757812 192.082031 223.558594 190.484375 C 225.550781 191.488281 227.507812 192.566406 229.40625 193.734375 C 229.722656 193.9375 230.0625 194.070312 230.433594 194.132812 C 230.804688 194.195312 231.167969 194.179688 231.535156 194.09375 C 231.898438 194.003906 232.230469 193.851562 232.53125 193.625 C 232.832031 193.402344 233.074219 193.128906 233.265625 192.804688 C 233.453125 192.480469 233.570312 192.132812 233.617188 191.761719 C 233.664062 191.390625 233.636719 191.023438 233.535156 190.664062 C 233.433594 190.300781 233.265625 189.976562 233.03125 189.683594 C 232.792969 189.390625 232.511719 189.160156 232.179688 188.984375 Z M 232.15625 188.988281 " fill-opacity="1" fill-rule="nonzero"/><path fill="#1e1e54" d="M 193.605469 192.207031 C 193.503906 192.128906 193.769531 192.359375 193.859375 192.449219 L 194.078125 192.667969 C 194.125 192.742188 194.253906 192.910156 194.269531 192.941406 C 194.371094 193.09375 194.460938 193.25 194.542969 193.414062 L 194.542969 193.460938 L 194.59375 193.667969 L 194.59375 193.707031 C 194.28125 193.695312 193.976562 193.734375 193.679688 193.828125 C 193.382812 193.917969 193.109375 194.054688 192.859375 194.238281 C 192.605469 194.417969 192.390625 194.636719 192.214844 194.894531 C 192.035156 195.148438 191.902344 195.425781 191.820312 195.722656 C 191.730469 196.074219 191.710938 196.429688 191.761719 196.789062 C 191.808594 197.148438 191.921875 197.488281 192.101562 197.800781 C 192.28125 198.117188 192.511719 198.386719 192.796875 198.613281 C 193.078125 198.839844 193.394531 199.007812 193.742188 199.109375 C 194.300781 199.261719 194.871094 199.316406 195.449219 199.269531 C 196.027344 199.222656 196.578125 199.082031 197.109375 198.84375 C 197.636719 198.601562 198.109375 198.28125 198.527344 197.878906 C 198.945312 197.472656 199.28125 197.011719 199.535156 196.492188 C 199.78125 195.929688 199.941406 195.34375 200.027344 194.738281 C 200.109375 194.132812 200.109375 193.527344 200.027344 192.921875 C 199.945312 192.3125 199.785156 191.730469 199.542969 191.167969 C 199.300781 190.605469 198.988281 190.085938 198.605469 189.609375 C 197.90625 188.730469 197.089844 187.980469 196.160156 187.351562 L 196.125 187.203125 C 196.125 187.007812 196.085938 186.804688 196.070312 186.605469 C 195.894531 184.617188 195.964844 182.636719 196.277344 180.667969 C 196.527344 179.253906 195.902344 177.628906 194.355469 177.28125 C 193.019531 176.972656 191.238281 177.6875 190.972656 179.203125 C 190.625 181.085938 190.460938 182.984375 190.476562 184.894531 C 190.511719 186.652344 190.476562 188.847656 191.507812 190.355469 C 192.101562 191.089844 192.800781 191.707031 193.605469 192.207031 Z M 194.734375 193.933594 Z M 194.707031 193.96875 Z M 194.707031 194.03125 Z M 194.707031 194.03125 L 194.707031 194.058594 C 194.707031 194.058594 194.625 194.0625 194.660156 194.019531 Z M 194.707031 194.03125 " fill-opacity="1" fill-rule="nonzero"/><path fill="#1e1e54" d="M 201.21875 202.730469 C 196.570312 200.695312 191.152344 201.035156 186.410156 202.605469 C 181.417969 204.230469 176.761719 208.019531 176.535156 213.589844 C 176.460938 213.832031 176.421875 214.074219 176.421875 214.324219 C 176.421875 215.6875 177.691406 217.238281 179.171875 217.082031 C 184.460938 216.515625 189.773438 216.628906 195.078125 216.816406 C 197.691406 216.910156 200.316406 217.019531 202.9375 217.050781 C 204.195312 217.050781 205.636719 217.261719 206.792969 216.695312 C 208.246094 215.984375 208.792969 214.546875 208.699219 212.992188 C 208.410156 208.476562 205.304688 204.523438 201.21875 202.730469 Z M 198.894531 211.445312 C 196.722656 211.371094 194.554688 211.28125 192.382812 211.21875 C 189.207031 211.128906 186.027344 211.105469 182.859375 211.28125 C 184.84375 208.25 189.917969 207.03125 193.261719 206.855469 C 195.78125 206.71875 198.449219 207.105469 200.484375 208.617188 C 201.332031 209.25 202.011719 210.027344 202.523438 210.953125 C 202.636719 211.136719 202.734375 211.324219 202.824219 211.519531 L 202.039062 211.519531 C 200.992188 211.503906 199.941406 211.480469 198.894531 211.445312 Z M 198.894531 211.445312 " fill-opacity="1" fill-rule="nonzero"/></svg>