<svg xmlns="http://www.w3.org/2000/svg" xmlns:xlink="http://www.w3.org/1999/xlink" width="500" zoomAndPan="magnify" viewBox="0 0 375 374.999991" height="500" preserveAspectRatio="xMidYMid meet" version="1.0"><path fill="#f2b561" d="M 178.152344 122.988281 C 170.976562 124.167969 136.75 129.792969 123.460938 160.203125 C 112.539062 185.175781 121.339844 214.078125 138.328125 230.921875 C 164.535156 256.886719 214.101562 258.054688 239.746094 227.199219 C 262.445312 199.890625 258.566406 156.921875 234.96875 135.738281 C 214.144531 117.066406 185.191406 121.828125 178.152344 122.988281 Z M 178.152344 122.988281 " fill-opacity="1" fill-rule="nonzero"/><path fill="#1e1e54" d="M 154.789062 183.753906 C 152.648438 183.753906 150.597656 185.636719 150.695312 187.851562 C 150.703125 188.390625 150.8125 188.910156 151.023438 189.410156 C 151.234375 189.90625 151.53125 190.347656 151.914062 190.730469 C 152.296875 191.113281 152.734375 191.410156 153.234375 191.621094 C 153.730469 191.832031 154.25 191.941406 154.789062 191.949219 C 156.929688 191.949219 158.984375 190.066406 158.882812 187.851562 C 158.875 187.308594 158.765625 186.792969 158.550781 186.292969 C 158.339844 185.796875 158.042969 185.355469 157.664062 184.976562 C 157.28125 184.59375 156.839844 184.296875 156.34375 184.085938 C 155.847656 183.875 155.328125 183.765625 154.789062 183.753906 Z M 154.789062 183.753906 " fill-opacity="1" fill-rule="nonzero"/><path fill="#1e1e54" d="M 224.550781 181.214844 C 224.375 180.675781 224.078125 180.214844 223.660156 179.832031 C 223.28125 179.40625 222.820312 179.105469 222.28125 178.929688 C 221.765625 178.65625 221.222656 178.53125 220.640625 178.554688 L 219.5 178.710938 C 218.773438 178.910156 218.144531 179.273438 217.605469 179.804688 L 216.933594 180.671875 C 216.542969 181.347656 216.347656 182.078125 216.351562 182.859375 L 216.351562 183.585938 C 216.402344 184.753906 216.820312 185.765625 217.605469 186.625 C 217.988281 187.042969 218.449219 187.339844 218.988281 187.511719 C 219.5 187.785156 220.046875 187.90625 220.625 187.882812 L 221.765625 187.730469 C 222.492188 187.53125 223.121094 187.167969 223.65625 186.636719 L 224.328125 185.769531 C 224.722656 185.09375 224.917969 184.363281 224.910156 183.582031 L 224.910156 182.855469 C 224.9375 182.273438 224.816406 181.726562 224.550781 181.214844 Z M 224.550781 181.214844 " fill-opacity="1" fill-rule="nonzero"/><path fill="#1e1e54" d="M 190.382812 193.144531 C 190.382812 193.144531 190.382812 193.203125 190.449219 193.417969 C 190.421875 193.328125 190.398438 193.234375 190.382812 193.144531 Z M 190.382812 193.144531 " fill-opacity="1" fill-rule="nonzero"/><path fill="#1e1e54" d="M 187.980469 191.46875 C 188.457031 191.875 188.988281 192.199219 189.5625 192.441406 L 190.109375 192.6875 L 190.195312 192.742188 C 190.265625 192.824219 190.324219 192.910156 190.378906 193 C 190.375 193.039062 190.375 193.078125 190.378906 193.117188 C 190.425781 193.195312 190.445312 193.285156 190.441406 193.378906 C 190.445312 193.402344 190.445312 193.425781 190.441406 193.449219 C 190.445312 193.429688 190.445312 193.410156 190.441406 193.390625 C 190.441406 193.390625 190.441406 193.417969 190.441406 193.425781 C 190.441406 193.570312 190.441406 193.722656 190.441406 193.871094 C 190.441406 193.914062 190.378906 194.082031 190.351562 194.199219 L 190.300781 194.300781 L 190.234375 194.410156 C 190.160156 194.484375 190.082031 194.554688 190.011719 194.628906 C 190.433594 194.175781 190.136719 194.511719 189.875 194.628906 C 188.375 195.402344 187.9375 197.503906 188.78125 198.90625 C 188.996094 199.257812 189.269531 199.554688 189.601562 199.800781 C 189.929688 200.046875 190.292969 200.222656 190.691406 200.328125 C 191.089844 200.433594 191.492188 200.457031 191.902344 200.40625 C 192.308594 200.355469 192.695312 200.226562 193.054688 200.027344 C 197.257812 197.839844 197.847656 191.679688 194.691406 188.382812 C 194.289062 187.96875 193.84375 187.613281 193.347656 187.320312 C 193.238281 187.253906 192.800781 186.992188 192.457031 186.828125 C 192.417969 186.171875 192.347656 185.515625 192.292969 184.867188 L 191.574219 176.117188 C 191.429688 174.441406 190.234375 172.996094 188.449219 172.996094 C 186.871094 172.996094 185.175781 174.429688 185.332031 176.117188 L 185.972656 183.828125 C 186.167969 186.378906 185.871094 189.660156 187.980469 191.46875 Z M 190.222656 194.449219 C 190.136719 194.582031 190.125 194.566406 190.222656 194.449219 Z M 190.453125 193.84375 C 190.480469 193.699219 190.523438 193.636719 190.453125 193.84375 Z M 190.191406 192.75 C 190.367188 192.851562 190.332031 192.875 190.191406 192.75 Z M 190.191406 192.75 " fill-opacity="1" fill-rule="nonzero"/><path fill="#1e1e54" d="M 202.515625 215.855469 C 202.171875 216.023438 201.828125 216.183594 201.484375 216.339844 L 201.339844 216.40625 L 201.171875 216.472656 C 200.550781 216.707031 199.925781 216.9375 199.289062 217.132812 C 198.058594 217.507812 196.808594 217.789062 195.535156 217.980469 L 195.082031 218.039062 C 194.707031 218.078125 194.324219 218.105469 193.949219 218.128906 C 193.28125 218.171875 192.617188 218.183594 191.949219 218.171875 C 191.285156 218.160156 190.617188 218.121094 189.953125 218.058594 L 189.449219 218.003906 C 189.136719 217.957031 188.828125 217.902344 188.519531 217.847656 C 186.921875 217.558594 185.082031 218.285156 184.699219 220.035156 C 184.347656 221.566406 185.164062 223.566406 186.882812 223.863281 C 190.078125 224.457031 193.28125 224.53125 196.5 224.078125 C 199.714844 223.628906 202.777344 222.679688 205.6875 221.234375 C 207.152344 220.511719 207.675781 218.3125 206.777344 216.964844 C 206.5625 216.613281 206.289062 216.320312 205.960938 216.074219 C 205.628906 215.832031 205.265625 215.65625 204.867188 215.554688 C 204.472656 215.453125 204.070312 215.425781 203.664062 215.476562 C 203.257812 215.527344 202.875 215.65625 202.515625 215.855469 Z M 202.515625 215.855469 " fill-opacity="1" fill-rule="nonzero"/></svg>