<svg xmlns="http://www.w3.org/2000/svg" xmlns:xlink="http://www.w3.org/1999/xlink" width="500" zoomAndPan="magnify" viewBox="0 0 375 374.999991" height="500" preserveAspectRatio="xMidYMid meet" version="1.0"><defs><clipPath id="37aa173e72"><path d="M 113 120 L 259 120 L 259 258.46875 L 113 258.46875 Z M 113 120 " clip-rule="nonzero"/></clipPath></defs><g clip-path="url(#37aa173e72)"><path fill="#5ce1e6" d="M 150.753906 128.574219 C 127.214844 140.675781 114.753906 166.699219 113.359375 191.902344 C 112.523438 207.121094 115.425781 223.117188 125.144531 235.316406 C 138.148438 251.65625 161.199219 258.398438 182.894531 258.382812 C 205.175781 258.382812 228.597656 251.390625 242.59375 235.097656 C 250.789062 225.5625 255.15625 213.589844 257.753906 201.574219 C 262.5 179.605469 250.65625 145.34375 228.867188 131.132812 C 206.820312 116.773438 173.667969 116.777344 150.753906 128.574219 Z M 150.753906 128.574219 " fill-opacity="1" fill-rule="nonzero"/></g><path fill="#1e1e54" d="M 217.5 196.488281 C 216.675781 196.496094 215.976562 196.785156 215.390625 197.367188 C 214.832031 197.972656 214.542969 198.691406 214.515625 199.515625 C 214.351562 201.554688 214.183594 203.589844 214.019531 205.628906 C 214.019531 206.453125 214.3125 207.15625 214.894531 207.738281 C 215.175781 208.023438 215.5 208.238281 215.863281 208.390625 C 216.230469 208.546875 216.613281 208.621094 217.011719 208.621094 C 217.40625 208.621094 217.789062 208.546875 218.15625 208.390625 C 218.523438 208.238281 218.847656 208.023438 219.125 207.738281 C 219.675781 207.140625 219.96875 206.4375 220.003906 205.628906 C 220.171875 203.589844 220.335938 201.554688 220.503906 199.515625 C 220.5 199.121094 220.417969 198.738281 220.265625 198.375 C 220.113281 198.011719 219.894531 197.6875 219.617188 197.410156 C 219.335938 197.128906 219.015625 196.914062 218.652344 196.761719 C 218.285156 196.609375 217.90625 196.53125 217.511719 196.527344 Z M 217.5 196.488281 " fill-opacity="1" fill-rule="nonzero"/><path fill="#1e1e54" d="M 171.515625 193.976562 C 170.691406 193.980469 169.984375 194.273438 169.398438 194.855469 C 168.832031 195.445312 168.542969 196.148438 168.53125 196.96875 L 168.53125 203.589844 C 168.542969 204.40625 168.832031 205.109375 169.398438 205.699219 C 169.679688 205.980469 170.003906 206.199219 170.371094 206.351562 C 170.734375 206.503906 171.117188 206.578125 171.515625 206.578125 C 171.910156 206.578125 172.292969 206.503906 172.660156 206.351562 C 173.027344 206.199219 173.351562 205.980469 173.628906 205.699219 C 174.199219 205.113281 174.492188 204.40625 174.507812 203.589844 L 174.507812 196.96875 C 174.5 196.574219 174.421875 196.191406 174.269531 195.828125 C 174.117188 195.464844 173.902344 195.144531 173.621094 194.863281 C 173.34375 194.585938 173.019531 194.367188 172.65625 194.214844 C 172.292969 194.0625 171.914062 193.984375 171.519531 193.976562 Z M 171.515625 193.976562 " fill-opacity="1" fill-rule="nonzero"/><path fill="#1e1e54" d="M 185.246094 223.570312 C 185.621094 223.496094 185.613281 223.449219 185.488281 223.480469 L 185.277344 223.550781 Z M 185.246094 223.570312 " fill-opacity="1" fill-rule="nonzero"/><path fill="#1e1e54" d="M 189.335938 217.511719 C 188.453125 217.304688 187.558594 217.21875 186.65625 217.25 C 185.75 217.28125 184.863281 217.429688 183.996094 217.695312 C 183.128906 217.960938 182.3125 218.335938 181.542969 218.816406 C 180.777344 219.296875 180.085938 219.871094 179.46875 220.539062 C 178.429688 221.699219 178.257812 223.628906 179.46875 224.773438 C 180.609375 225.816406 182.582031 225.984375 183.699219 224.773438 C 183.898438 224.550781 184.109375 224.351562 184.304688 224.167969 L 184.507812 224.023438 C 184.742188 223.875 184.984375 223.738281 185.234375 223.613281 L 185.160156 223.613281 L 185.265625 223.574219 C 185.320312 223.542969 185.382812 223.523438 185.445312 223.515625 C 185.71875 223.425781 186 223.351562 186.285156 223.296875 L 186.597656 223.261719 C 186.839844 223.246094 187.078125 223.246094 187.320312 223.261719 L 187.246094 223.226562 C 187.28125 223.242188 187.320312 223.253906 187.359375 223.261719 L 187.410156 223.261719 C 187.773438 223.261719 187.652344 223.304688 187.480469 223.261719 L 187.6875 223.261719 C 187.929688 223.316406 188.160156 223.402344 188.394531 223.472656 L 188.691406 223.625 C 188.914062 223.746094 189.121094 223.890625 189.332031 224.023438 L 189.585938 224.246094 C 189.773438 224.421875 189.941406 224.617188 190.109375 224.804688 C 190.171875 224.890625 190.238281 224.980469 190.292969 225.070312 C 190.425781 225.277344 190.527344 225.550781 190.667969 225.761719 C 190.710938 225.882812 190.75 225.996094 190.789062 226.117188 C 190.890625 226.5 191.066406 226.847656 191.308594 227.160156 C 191.550781 227.476562 191.847656 227.730469 192.191406 227.925781 C 192.535156 228.121094 192.902344 228.246094 193.296875 228.292969 C 193.691406 228.34375 194.078125 228.316406 194.460938 228.210938 C 194.839844 228.105469 195.1875 227.929688 195.5 227.6875 C 195.8125 227.445312 196.070312 227.148438 196.265625 226.804688 C 196.460938 226.460938 196.582031 226.089844 196.632812 225.695312 C 196.679688 225.304688 196.652344 224.914062 196.546875 224.53125 C 196.296875 223.6875 195.945312 222.886719 195.488281 222.132812 C 195.035156 221.378906 194.488281 220.691406 193.859375 220.078125 C 193.226562 219.464844 192.527344 218.9375 191.761719 218.503906 C 190.996094 218.070312 190.1875 217.738281 189.335938 217.511719 Z M 184.144531 224.242188 L 184.207031 224.199219 Z M 190.683594 225.632812 L 190.722656 225.742188 C 190.644531 225.574219 190.582031 225.34375 190.683594 225.632812 Z M 190.75 225.808594 L 190.75 225.863281 Z M 190.75 225.808594 " fill-opacity="1" fill-rule="nonzero"/><path fill="#1e1e54" d="M 179.765625 186.457031 C 179.984375 185.644531 179.882812 184.878906 179.460938 184.152344 C 178.621094 182.847656 176.773438 182.160156 175.375 183.078125 C 175.042969 183.304688 174.699219 183.507812 174.335938 183.683594 C 173.789062 183.894531 173.222656 184.054688 172.644531 184.15625 C 172.09375 184.203125 171.542969 184.203125 170.988281 184.15625 C 170.660156 184.105469 170.332031 184.035156 170.011719 183.945312 C 169.628906 183.839844 169.242188 183.8125 168.847656 183.859375 C 168.453125 183.910156 168.085938 184.03125 167.742188 184.226562 C 167.394531 184.421875 167.101562 184.675781 166.859375 184.988281 C 166.617188 185.300781 166.441406 185.648438 166.335938 186.03125 C 166.230469 186.414062 166.203125 186.804688 166.25 187.195312 C 166.300781 187.589844 166.421875 187.960938 166.617188 188.304688 C 166.8125 188.648438 167.066406 188.945312 167.378906 189.1875 C 167.691406 189.429688 168.039062 189.605469 168.421875 189.710938 C 170.109375 190.199219 171.824219 190.316406 173.5625 190.066406 C 175.300781 189.8125 176.910156 189.210938 178.390625 188.265625 C 179.082031 187.839844 179.539062 187.234375 179.765625 186.457031 Z M 179.765625 186.457031 " fill-opacity="1" fill-rule="nonzero"/><path fill="#1e1e54" d="M 221.320312 189.785156 C 220.804688 189.3125 220.199219 189.039062 219.507812 188.957031 C 218.945312 188.867188 218.402344 188.726562 217.867188 188.53125 C 217.445312 188.328125 217.042969 188.089844 216.660156 187.824219 C 216.308594 187.523438 215.984375 187.199219 215.6875 186.847656 C 215.632812 186.769531 215.570312 186.699219 215.523438 186.621094 C 215.105469 185.933594 214.507812 185.476562 213.742188 185.246094 C 212.933594 185.03125 212.164062 185.132812 211.4375 185.546875 C 211.097656 185.75 210.804688 186.007812 210.566406 186.324219 C 210.328125 186.636719 210.15625 186.988281 210.058594 187.371094 C 209.957031 187.753906 209.933594 188.144531 209.988281 188.535156 C 210.042969 188.929688 210.167969 189.296875 210.367188 189.640625 C 211.332031 191.160156 212.585938 192.386719 214.128906 193.320312 C 215.691406 194.238281 217.382812 194.761719 219.191406 194.890625 C 220.015625 194.886719 220.71875 194.59375 221.300781 194.015625 C 221.582031 193.734375 221.800781 193.410156 221.953125 193.042969 C 222.105469 192.675781 222.179688 192.292969 222.179688 191.894531 C 222.179688 191.5 222.105469 191.117188 221.953125 190.75 C 221.800781 190.382812 221.582031 190.058594 221.300781 189.777344 Z M 221.320312 189.785156 " fill-opacity="1" fill-rule="nonzero"/><path fill="#1e1e54" d="M 202.039062 204.78125 C 201.277344 204.144531 200.425781 203.667969 199.484375 203.359375 L 199.339844 203.316406 C 199.339844 202.5 199.417969 201.675781 199.476562 200.894531 C 199.476562 200.53125 199.539062 200.167969 199.582031 199.8125 C 199.582031 199.714844 199.660156 199.316406 199.671875 199.261719 C 199.816406 198.457031 200.019531 197.667969 200.277344 196.894531 C 200.375 196.511719 200.402344 196.125 200.351562 195.734375 C 200.300781 195.339844 200.175781 194.972656 199.980469 194.628906 C 199.789062 194.285156 199.535156 193.992188 199.226562 193.746094 C 198.914062 193.503906 198.570312 193.324219 198.191406 193.214844 C 197.808594 193.121094 197.421875 193.097656 197.035156 193.152344 C 196.644531 193.203125 196.277344 193.328125 195.9375 193.523438 C 195.59375 193.714844 195.300781 193.96875 195.054688 194.277344 C 194.808594 194.582031 194.628906 194.925781 194.515625 195.304688 C 193.890625 197.378906 193.539062 199.496094 193.464844 201.664062 C 193.339844 204.085938 192.824219 207.867188 195.882812 208.6875 C 196.25 208.785156 196.636719 208.824219 197.011719 208.90625 C 197.222656 208.949219 197.429688 209.023438 197.617188 209.066406 L 197.730469 209.066406 C 197.785156 209.101562 197.960938 209.210938 198.027344 209.238281 L 198.09375 209.3125 L 198.183594 209.464844 C 198.183594 209.488281 198.183594 209.511719 198.183594 209.535156 L 198.183594 209.628906 C 198.089844 209.785156 198.125 209.742188 198.183594 209.667969 L 198.183594 209.699219 L 198.0625 209.839844 L 197.917969 209.949219 L 197.796875 210.003906 L 197.636719 210.003906 C 197.238281 210.003906 196.859375 210.078125 196.492188 210.230469 C 196.125 210.382812 195.804688 210.597656 195.523438 210.878906 C 195.242188 211.160156 195.027344 211.480469 194.875 211.847656 C 194.726562 212.214844 194.648438 212.59375 194.648438 212.992188 C 194.648438 213.386719 194.726562 213.769531 194.875 214.136719 C 195.027344 214.503906 195.242188 214.824219 195.523438 215.105469 C 195.804688 215.386719 196.125 215.601562 196.492188 215.753906 C 196.859375 215.90625 197.238281 215.980469 197.636719 215.980469 C 201.199219 215.980469 204.390625 212.957031 204.144531 209.324219 C 204.113281 208.457031 203.914062 207.628906 203.550781 206.839844 C 203.1875 206.050781 202.683594 205.363281 202.039062 204.78125 Z M 198.28125 209.71875 Z M 198.28125 209.65625 Z M 198.171875 209.828125 L 198.257812 209.753906 L 197.972656 210.03125 C 198.042969 209.960938 198.105469 209.886719 198.160156 209.804688 Z M 198.324219 209.613281 C 198.34375 209.554688 198.355469 209.546875 198.3125 209.613281 Z M 198.324219 209.613281 " fill-opacity="1" fill-rule="nonzero"/></svg>