<svg xmlns="http://www.w3.org/2000/svg" xmlns:xlink="http://www.w3.org/1999/xlink" width="500" zoomAndPan="magnify" viewBox="0 0 375 374.999991" height="500" preserveAspectRatio="xMidYMid meet" version="1.0"><path fill="#ffde59" d="M 122.6875 160.722656 C 112.523438 183.242188 117.164062 210.503906 130.234375 231.476562 C 134.265625 237.964844 139.214844 244.128906 145.839844 247.941406 C 151.546875 251.234375 158.152344 252.578125 164.671875 253.542969 C 186.117188 256.703125 208.90625 255.960938 228.230469 246.175781 C 247.558594 236.394531 262.535156 216.050781 261.222656 194.445312 C 260.746094 186.570312 258.214844 178.957031 255.054688 171.730469 C 244.574219 147.703125 220.472656 121.027344 192.273438 119.484375 C 167.144531 118.117188 132.917969 138.058594 122.6875 160.722656 Z M 122.6875 160.722656 " fill-opacity="1" fill-rule="nonzero"/><path fill="#1e1e54" d="M 161.339844 181.539062 C 160.910156 181.542969 160.496094 181.632812 160.101562 181.800781 C 159.703125 181.96875 159.355469 182.203125 159.050781 182.507812 C 158.746094 182.808594 158.511719 183.160156 158.34375 183.554688 C 158.175781 183.949219 158.089844 184.363281 158.082031 184.789062 L 158.082031 192.769531 C 158.085938 193.671875 158.40625 194.445312 159.039062 195.089844 C 159.503906 195.558594 160.0625 195.855469 160.710938 195.984375 C 161.359375 196.113281 161.988281 196.050781 162.597656 195.796875 C 163.207031 195.542969 163.695312 195.140625 164.058594 194.585938 C 164.421875 194.035156 164.601562 193.429688 164.597656 192.769531 L 164.597656 184.789062 C 164.59375 183.890625 164.273438 183.117188 163.644531 182.472656 C 163.003906 181.847656 162.234375 181.535156 161.339844 181.539062 Z M 161.339844 181.539062 " fill-opacity="1" fill-rule="nonzero"/><path fill="#1e1e54" d="M 225.269531 182.144531 C 225.25 181.25 224.929688 180.476562 224.3125 179.828125 C 224.007812 179.523438 223.652344 179.285156 223.253906 179.121094 C 222.855469 178.957031 222.441406 178.875 222.007812 178.875 C 221.578125 178.875 221.164062 178.957031 220.761719 179.121094 C 220.363281 179.285156 220.011719 179.523438 219.707031 179.828125 C 219.058594 180.464844 218.742188 181.238281 218.753906 182.144531 C 218.941406 184.796875 219.132812 187.453125 219.335938 190.109375 C 219.351562 191.003906 219.667969 191.777344 220.289062 192.429688 C 220.933594 193.0625 221.707031 193.378906 222.609375 193.378906 C 223.515625 193.382812 224.289062 193.066406 224.933594 192.429688 C 225.578125 191.789062 225.898438 191.015625 225.890625 190.109375 C 225.667969 187.453125 225.460938 184.796875 225.269531 182.144531 Z M 225.269531 182.144531 " fill-opacity="1" fill-rule="nonzero"/><path fill="#1e1e54" d="M 191.960938 208.535156 C 193.636719 208.3125 195.304688 207.199219 195.21875 205.28125 C 195.152344 203.933594 194.132812 202.328125 192.691406 202.050781 L 192.917969 201.8125 C 193.011719 201.71875 193.117188 201.636719 193.214844 201.550781 L 193.558594 201.296875 C 194.746094 200.511719 195.878906 199.753906 196.355469 198.316406 C 196.996094 196.273438 196.578125 193.714844 196.417969 191.609375 C 196.246094 189.1875 195.945312 186.769531 195.578125 184.367188 C 195.316406 182.679688 193.109375 181.601562 191.570312 182.09375 C 189.730469 182.675781 189.015625 184.292969 189.292969 186.101562 C 189.472656 187.261719 189.589844 188.160156 189.71875 189.476562 C 189.847656 190.707031 189.9375 191.929688 190.003906 193.160156 C 190.003906 193.738281 190.054688 194.320312 190.074219 194.898438 C 190.074219 195.183594 190.074219 195.480469 190.074219 195.820312 L 189.921875 195.917969 C 189.359375 196.304688 188.828125 196.730469 188.335938 197.203125 C 186.519531 198.96875 185.433594 201.597656 186.148438 204.125 C 186.859375 206.65625 189.246094 208.921875 191.960938 208.535156 Z M 192.4375 202.449219 Z M 192.4375 202.484375 C 192.582031 202.691406 192.496094 202.605469 192.425781 202.484375 Z M 192.4375 202.484375 " fill-opacity="1" fill-rule="nonzero"/><path fill="#1e1e54" d="M 210.117188 210.433594 C 209.53125 209.855469 208.820312 209.5625 207.992188 209.558594 C 206.449219 209.625 204.875 210.882812 204.984375 212.5625 C 205.027344 213.179688 205.0625 213.800781 205.101562 214.414062 L 179.148438 215.363281 L 179.148438 213.742188 C 179.148438 213.34375 179.074219 212.960938 178.921875 212.589844 C 178.769531 212.222656 178.550781 211.898438 178.269531 211.617188 C 177.984375 211.335938 177.660156 211.117188 177.292969 210.964844 C 176.921875 210.8125 176.539062 210.738281 176.140625 210.738281 C 175.742188 210.738281 175.359375 210.8125 174.988281 210.964844 C 174.621094 211.117188 174.296875 211.335938 174.015625 211.617188 C 173.730469 211.898438 173.515625 212.222656 173.363281 212.589844 C 173.210938 212.960938 173.132812 213.34375 173.132812 213.742188 L 173.132812 222.890625 C 173.132812 223.289062 173.210938 223.675781 173.363281 224.042969 C 173.515625 224.410156 173.730469 224.734375 174.015625 225.015625 C 174.296875 225.296875 174.621094 225.515625 174.988281 225.667969 C 175.359375 225.820312 175.742188 225.898438 176.140625 225.898438 C 176.539062 225.898438 176.921875 225.820312 177.292969 225.667969 C 177.660156 225.515625 177.984375 225.296875 178.269531 225.015625 C 178.550781 224.734375 178.769531 224.410156 178.921875 224.042969 C 179.074219 223.675781 179.148438 223.289062 179.148438 222.890625 L 179.148438 221.375 L 205.496094 220.410156 L 205.617188 222.308594 C 205.640625 223.128906 205.933594 223.839844 206.5 224.433594 C 207.089844 225.015625 207.800781 225.304688 208.625 225.3125 C 210.171875 225.242188 211.746094 223.988281 211.632812 222.308594 C 211.425781 219.058594 211.214844 215.8125 211 212.5625 C 210.980469 211.742188 210.6875 211.03125 210.117188 210.433594 Z M 210.117188 210.433594 " fill-opacity="1" fill-rule="nonzero"/></svg>