<svg xmlns="http://www.w3.org/2000/svg" xmlns:xlink="http://www.w3.org/1999/xlink" width="500" zoomAndPan="magnify" viewBox="0 0 375 374.999991" height="500" preserveAspectRatio="xMidYMid meet" version="1.0"><path fill="#38b6ff" d="M 116.640625 197.3125 C 119.816406 229.886719 149.335938 258.195312 182.800781 260.355469 C 216.269531 262.519531 249.515625 237.816406 255.890625 205.695312 C 262.417969 172.78125 233.210938 124.132812 197.132812 118.933594 C 152.628906 112.523438 112.609375 155.894531 116.640625 197.3125 Z M 116.640625 197.3125 " fill-opacity="1" fill-rule="nonzero"/><path fill="#1e1e54" d="M 187.859375 207.460938 C 189.648438 207.652344 191.355469 205.746094 191.277344 204.035156 C 191.273438 203.65625 191.207031 203.289062 191.082031 202.933594 C 190.953125 202.578125 190.769531 202.253906 190.535156 201.957031 C 190.296875 201.664062 190.019531 201.414062 189.699219 201.214844 C 189.382812 201.011719 189.039062 200.867188 188.667969 200.78125 C 188.667969 200.769531 188.667969 200.761719 188.667969 200.75 C 188.734375 200.574219 188.785156 200.394531 188.824219 200.214844 L 188.890625 200.117188 C 189.085938 199.808594 189.285156 199.519531 189.488281 199.179688 L 189.863281 198.738281 C 190.203125 198.351562 190.527344 197.964844 190.84375 197.546875 C 192.464844 195.445312 192.292969 193.097656 191.726562 190.640625 C 191.296875 188.789062 190.789062 186.960938 190.210938 185.152344 C 189.667969 183.453125 187.824219 182.167969 186.03125 182.765625 C 184.324219 183.320312 183.046875 185.152344 183.644531 186.980469 C 184.289062 189 184.835938 191.046875 185.308594 193.117188 C 185.308594 193.117188 185.308594 193.347656 185.367188 193.523438 L 185.242188 193.695312 C 184.492188 194.511719 183.8125 195.386719 183.207031 196.316406 C 182.015625 198.261719 181.417969 200.757812 182.1875 202.972656 C 182.382812 203.585938 182.664062 204.15625 183.03125 204.6875 C 183.398438 205.214844 183.832031 205.679688 184.339844 206.082031 C 184.84375 206.480469 185.394531 206.796875 185.996094 207.035156 C 186.59375 207.269531 187.214844 207.410156 187.859375 207.460938 Z M 189.476562 199.1875 C 189.355469 199.359375 189.339844 199.355469 189.476562 199.1875 Z M 188.707031 200.886719 L 188.707031 200.839844 L 188.742188 200.90625 Z M 188.707031 200.9375 C 188.765625 200.984375 188.765625 200.988281 188.734375 200.9375 Z M 188.65625 200.835938 Z M 188.65625 200.570312 C 188.660156 200.570312 188.664062 200.570312 188.667969 200.570312 Z M 188.617188 200.726562 C 188.53125 200.542969 188.570312 200.621094 188.632812 200.726562 Z M 188.335938 200.726562 C 188.175781 200.6875 188.011719 200.660156 187.847656 200.636719 C 188.015625 200.644531 188.183594 200.667969 188.347656 200.703125 Z M 188.335938 200.726562 " fill-opacity="1" fill-rule="nonzero"/><path fill="#1e1e54" d="M 171.507812 194.511719 C 172.703125 193.183594 172.917969 190.96875 171.507812 189.671875 C 170.203125 188.480469 167.929688 188.253906 166.667969 189.671875 C 166.148438 190.242188 165.597656 190.777344 165.007812 191.273438 L 164.890625 191.378906 L 164.679688 191.511719 C 164.371094 191.726562 164.042969 191.933594 163.714844 192.109375 C 163.386719 192.28125 163.046875 192.488281 162.699219 192.664062 L 162.238281 192.882812 C 161.511719 193.132812 160.800781 193.390625 160.046875 193.578125 C 159.71875 193.652344 159.378906 193.726562 159.046875 193.785156 L 159.085938 193.785156 L 159.023438 193.785156 C 158.941406 193.792969 158.859375 193.792969 158.777344 193.785156 C 158.710938 193.804688 158.644531 193.816406 158.574219 193.820312 C 157.808594 193.894531 157.039062 193.910156 156.269531 193.875 L 155.757812 193.839844 L 155.535156 193.839844 L 155.273438 193.804688 L 154.773438 193.707031 C 153.976562 193.539062 153.199219 193.308594 152.4375 193.015625 C 150.761719 192.382812 148.613281 193.71875 148.222656 195.402344 C 147.78125 197.347656 148.820312 198.929688 150.613281 199.609375 C 157.695312 202.332031 166.429688 200.152344 171.507812 194.511719 Z M 171.507812 194.511719 " fill-opacity="1" fill-rule="nonzero"/><path fill="#1e1e54" d="M 158.980469 193.820312 C 158.796875 193.765625 158.59375 193.820312 158.710938 193.851562 C 158.800781 193.828125 158.890625 193.816406 158.980469 193.820312 Z M 158.980469 193.820312 " fill-opacity="1" fill-rule="nonzero"/><path fill="#1e1e54" d="M 213.648438 192.257812 C 215.8125 192.167969 217.886719 191.703125 219.878906 190.859375 C 221.871094 190.015625 223.652344 188.847656 225.21875 187.355469 C 225.539062 187.035156 225.785156 186.667969 225.960938 186.246094 C 226.136719 185.828125 226.222656 185.390625 226.222656 184.9375 C 226.222656 184.484375 226.136719 184.046875 225.964844 183.628906 C 225.789062 183.210938 225.542969 182.839844 225.222656 182.519531 C 224.902344 182.195312 224.53125 181.949219 224.113281 181.773438 C 223.691406 181.601562 223.257812 181.515625 222.804688 181.515625 C 222.347656 181.515625 221.914062 181.601562 221.492188 181.773438 C 221.074219 181.949219 220.703125 182.195312 220.382812 182.515625 C 220.136719 182.742188 219.886719 182.964844 219.632812 183.179688 C 219.558594 183.214844 219.035156 183.613281 218.933594 183.667969 C 218.402344 184.007812 217.847656 184.308594 217.273438 184.570312 C 217.214844 184.570312 216.5625 184.835938 216.460938 184.875 C 216.078125 184.992188 215.691406 185.101562 215.269531 185.195312 C 215.167969 185.195312 214.496094 185.328125 214.425781 185.351562 C 214.164062 185.351562 213.894531 185.398438 213.625 185.410156 C 213.261719 185.410156 212.898438 185.410156 212.539062 185.410156 C 212.433594 185.410156 211.714844 185.320312 211.65625 185.328125 C 210.964844 185.207031 210.28125 185.039062 209.613281 184.820312 L 208.941406 184.558594 C 208.621094 184.414062 208.3125 184.257812 208.007812 184.089844 C 207.644531 183.882812 207.304688 183.648438 206.945312 183.429688 L 206.703125 183.257812 L 206.402344 183.011719 C 205.042969 181.816406 202.882812 181.574219 201.5625 183.011719 C 200.367188 184.28125 200.105469 186.59375 201.5625 187.847656 C 203.230469 189.3125 205.105469 190.425781 207.191406 191.1875 C 209.277344 191.949219 211.429688 192.304688 213.648438 192.257812 Z M 213.648438 192.257812 " fill-opacity="1" fill-rule="nonzero"/><path fill="#1e1e54" d="M 228.738281 222.554688 C 228.503906 222.167969 228.207031 221.839844 227.847656 221.570312 C 227.484375 221.300781 227.085938 221.109375 226.648438 220.996094 C 226.210938 220.878906 225.769531 220.851562 225.320312 220.910156 C 224.875 220.964844 224.453125 221.105469 224.058594 221.324219 C 222.359375 222.300781 220.765625 223.429688 219.285156 224.710938 C 214.898438 218.03125 206.75 214.390625 198.863281 214.503906 C 193.941406 214.648438 189.277344 215.816406 184.867188 218.007812 C 180.984375 219.789062 177.625 222.285156 174.792969 225.488281 C 172.242188 228.472656 170.304688 232.09375 169.921875 235.996094 C 168.351562 235.753906 166.777344 235.574219 165.1875 235.472656 C 164.734375 235.476562 164.300781 235.566406 163.882812 235.738281 C 163.464844 235.914062 163.097656 236.164062 162.777344 236.484375 C 162.457031 236.804688 162.210938 237.175781 162.035156 237.59375 C 161.863281 238.011719 161.773438 238.445312 161.773438 238.898438 C 161.78125 239.347656 161.875 239.78125 162.050781 240.195312 C 162.226562 240.609375 162.472656 240.976562 162.792969 241.296875 C 163.109375 241.613281 163.472656 241.863281 163.886719 242.039062 C 164.300781 242.21875 164.730469 242.3125 165.183594 242.324219 C 165.777344 242.367188 166.40625 242.414062 167.019531 242.472656 L 167.800781 242.5625 L 168.042969 242.59375 L 168.195312 242.59375 C 169.324219 242.777344 170.445312 242.96875 171.5625 243.226562 C 173.878906 243.75 176.140625 244.445312 178.347656 245.316406 C 180.019531 245.972656 182.175781 244.597656 182.527344 242.929688 C 182.976562 240.964844 181.929688 239.425781 180.140625 238.71875 C 178.996094 238.273438 177.835938 237.878906 176.667969 237.527344 C 176.667969 237.179688 176.667969 236.832031 176.667969 236.488281 C 176.667969 236.441406 176.667969 236.410156 176.667969 236.375 C 176.703125 236.171875 176.738281 235.96875 176.785156 235.777344 C 176.882812 235.347656 176.996094 234.921875 177.132812 234.503906 C 177.203125 234.289062 177.28125 234.085938 177.359375 233.910156 C 177.507812 233.570312 177.675781 233.234375 177.855469 232.90625 C 178.265625 232.136719 178.738281 231.40625 179.269531 230.714844 C 179.339844 230.636719 179.722656 230.179688 179.789062 230.117188 C 180.058594 229.808594 180.335938 229.519531 180.617188 229.21875 C 181.28125 228.546875 181.980469 227.929688 182.699219 227.324219 L 182.953125 227.128906 C 183.054688 227.050781 183.15625 226.972656 183.261719 226.902344 C 183.59375 226.664062 183.925781 226.429688 184.265625 226.203125 C 185.09375 225.660156 185.945312 225.15625 186.824219 224.691406 C 190.074219 222.933594 193.535156 221.863281 197.210938 221.476562 C 198.132812 221.402344 199.058594 221.378906 199.980469 221.410156 C 200.507812 221.410156 201.039062 221.46875 201.5625 221.515625 L 201.824219 221.515625 L 202.421875 221.613281 C 203.210938 221.765625 203.988281 221.964844 204.757812 222.210938 C 205.191406 222.339844 205.628906 222.488281 206.050781 222.644531 L 206.535156 222.835938 L 206.628906 222.871094 L 206.816406 222.96875 C 207.6875 223.386719 208.535156 223.859375 209.351562 224.375 L 209.777344 224.664062 L 210.253906 225.003906 L 210.570312 225.257812 C 210.789062 225.4375 211 225.628906 211.207031 225.820312 C 211.855469 226.398438 212.453125 227.027344 213 227.699219 C 213.054688 227.773438 213.128906 227.886719 213.15625 227.910156 C 213.308594 228.148438 213.472656 228.375 213.621094 228.613281 C 213.894531 229.050781 214.140625 229.492188 214.378906 229.945312 C 214.394531 229.972656 214.410156 230.003906 214.433594 230.027344 C 213.796875 230.894531 213.210938 231.792969 212.671875 232.722656 C 212.441406 233.113281 212.296875 233.535156 212.234375 233.984375 C 212.175781 234.433594 212.203125 234.875 212.316406 235.316406 C 212.433594 235.753906 212.625 236.152344 212.902344 236.515625 C 213.175781 236.875 213.507812 237.171875 213.902344 237.402344 C 214.292969 237.628906 214.714844 237.773438 215.164062 237.835938 C 215.613281 237.898438 216.054688 237.871094 216.496094 237.753906 C 216.933594 237.640625 217.335938 237.445312 217.695312 237.171875 C 218.054688 236.894531 218.351562 236.5625 218.582031 236.171875 C 219.140625 235.207031 219.753906 234.28125 220.425781 233.390625 C 221.6875 231.820312 223.105469 230.40625 224.675781 229.144531 C 225.578125 228.46875 226.519531 227.851562 227.496094 227.289062 C 227.894531 227.058594 228.230469 226.757812 228.507812 226.394531 C 228.789062 226.027344 228.984375 225.625 229.101562 225.179688 C 229.21875 224.734375 229.246094 224.285156 229.179688 223.832031 C 229.117188 223.378906 228.972656 222.953125 228.738281 222.554688 Z M 176.730469 236.355469 C 176.730469 235.980469 176.730469 236.195312 176.730469 236.355469 Z M 177.402344 233.9375 L 177.402344 233.890625 C 177.394531 233.96875 177.238281 234.277344 177.402344 233.914062 Z M 177.402344 233.9375 " fill-opacity="1" fill-rule="nonzero"/></svg>