<svg xmlns="http://www.w3.org/2000/svg" xmlns:xlink="http://www.w3.org/1999/xlink" width="500" zoomAndPan="magnify" viewBox="0 0 375 374.999991" height="500" preserveAspectRatio="xMidYMid meet" version="1.0"><path fill="#ef7f22" d="M 204.511719 118.71875 C 178.917969 114.835938 142.613281 122.628906 124.613281 156.734375 C 112.484375 179.730469 119.707031 206.300781 131.597656 222.660156 C 151.664062 250.257812 193.28125 260.175781 223.90625 242.054688 C 245.152344 229.46875 262.484375 202.566406 256.484375 174.570312 C 249.480469 141.945312 228.011719 122.277344 204.511719 118.71875 Z M 204.511719 118.71875 " fill-opacity="1" fill-rule="nonzero"/><path fill="#1e1e54" d="M 170.425781 172.761719 C 168.546875 172.761719 166.746094 174.410156 166.835938 176.351562 C 166.835938 176.828125 166.925781 177.285156 167.109375 177.726562 C 167.292969 178.164062 167.550781 178.554688 167.886719 178.890625 C 168.222656 179.226562 168.613281 179.484375 169.050781 179.667969 C 169.492188 179.851562 169.949219 179.941406 170.425781 179.941406 C 170.902344 179.941406 171.359375 179.851562 171.800781 179.667969 C 172.238281 179.484375 172.628906 179.226562 172.964844 178.890625 C 173.300781 178.554688 173.558594 178.164062 173.742188 177.726562 C 173.925781 177.285156 174.015625 176.828125 174.015625 176.351562 C 174.015625 175.875 173.925781 175.417969 173.742188 174.976562 C 173.558594 174.539062 173.300781 174.152344 172.964844 173.8125 C 172.628906 173.476562 172.238281 173.21875 171.800781 173.035156 C 171.359375 172.855469 170.902344 172.761719 170.425781 172.761719 Z M 170.425781 172.761719 " fill-opacity="1" fill-rule="nonzero"/><path fill="#1e1e54" d="M 214.816406 170.914062 C 214.496094 170.5625 214.109375 170.3125 213.660156 170.167969 C 213.226562 169.941406 212.765625 169.839844 212.277344 169.859375 L 211.320312 169.988281 C 210.710938 170.15625 210.183594 170.460938 209.738281 170.914062 C 209.550781 171.152344 209.367188 171.398438 209.179688 171.640625 C 208.847656 172.195312 208.683594 172.800781 208.6875 173.449219 L 208.6875 173.691406 C 208.667969 174.179688 208.769531 174.640625 208.996094 175.070312 C 209.339844 175.996094 209.972656 176.628906 210.898438 176.972656 C 211.328125 177.199219 211.789062 177.300781 212.277344 177.28125 L 213.234375 177.152344 C 213.84375 176.984375 214.371094 176.675781 214.816406 176.230469 L 215.375 175.503906 C 215.703125 174.941406 215.867188 174.339844 215.867188 173.691406 L 215.867188 173.449219 C 215.828125 172.476562 215.476562 171.628906 214.816406 170.914062 Z M 214.816406 170.914062 " fill-opacity="1" fill-rule="nonzero"/><path fill="#1e1e54" d="M 188.1875 179.890625 C 188.289062 180.855469 188.554688 181.773438 188.988281 182.640625 C 189.328125 183.226562 189.765625 183.726562 190.304688 184.136719 C 190.839844 184.550781 191.4375 184.847656 192.089844 185.023438 L 192.128906 185.078125 L 192.21875 185.230469 C 192.167969 185.167969 192.125 185.097656 192.089844 185.023438 C 192.125 185.152344 192.175781 185.3125 192.207031 185.402344 C 192.242188 185.492188 192.207031 185.402344 192.207031 185.441406 C 191.78125 185.390625 191.359375 185.414062 190.9375 185.511719 C 190.519531 185.609375 190.132812 185.777344 189.773438 186.015625 C 189.414062 186.253906 189.109375 186.542969 188.851562 186.890625 C 188.597656 187.238281 188.414062 187.617188 188.292969 188.03125 C 188.175781 188.488281 188.148438 188.953125 188.210938 189.425781 C 188.273438 189.894531 188.421875 190.335938 188.65625 190.746094 C 188.890625 191.160156 189.195312 191.511719 189.566406 191.804688 C 189.9375 192.101562 190.347656 192.3125 190.804688 192.449219 C 191.496094 192.625 192.195312 192.691406 192.910156 192.648438 C 193.621094 192.605469 194.308594 192.453125 194.972656 192.195312 C 195.636719 191.9375 196.246094 191.582031 196.800781 191.128906 C 197.351562 190.679688 197.824219 190.15625 198.210938 189.558594 C 199.804688 187.214844 199.613281 184.101562 198.414062 181.652344 C 197.820312 180.449219 196.949219 179.5 195.800781 178.804688 C 195.601562 178.695312 195.382812 178.582031 195.152344 178.480469 C 194.757812 176.492188 194.527344 174.445312 194.207031 172.445312 C 193.914062 170.589844 191.496094 169.386719 189.792969 169.9375 C 187.773438 170.59375 186.96875 172.359375 187.289062 174.355469 C 187.582031 176.210938 187.898438 178.050781 188.1875 179.890625 Z M 192.066406 184.921875 Z M 192.066406 184.921875 " fill-opacity="1" fill-rule="nonzero"/><path fill="#1e1e54" d="M 207.65625 190.988281 C 205.84375 189.925781 203.890625 190.703125 202.746094 192.273438 L 202.578125 192.492188 C 202.40625 192.703125 202.21875 192.917969 202.019531 193.117188 C 201.6875 193.476562 201.34375 193.828125 200.984375 194.160156 C 200.753906 194.367188 200.527344 194.566406 200.292969 194.761719 L 200.136719 194.878906 C 199.695312 195.199219 199.234375 195.5 198.757812 195.78125 C 198.285156 196.058594 197.796875 196.3125 197.300781 196.550781 L 197.066406 196.652344 L 196.457031 196.882812 C 195.929688 197.058594 195.40625 197.210938 194.867188 197.339844 L 194.148438 197.496094 L 193.679688 197.570312 C 192.664062 197.675781 191.648438 197.6875 190.628906 197.601562 L 190.171875 197.558594 L 189.535156 197.441406 C 189.042969 197.339844 188.550781 197.214844 188.070312 197.078125 C 186.238281 196.507812 184.585938 195.605469 183.109375 194.375 C 182.769531 194.050781 182.378906 193.800781 181.941406 193.621094 C 181.503906 193.445312 181.046875 193.359375 180.574219 193.359375 C 180.101562 193.359375 179.648438 193.445312 179.210938 193.621094 C 178.773438 193.800781 178.382812 194.050781 178.039062 194.375 C 176.738281 195.679688 176.570312 198.171875 178.039062 199.453125 C 182.441406 203.300781 188.339844 205.429688 194.203125 204.691406 C 195.667969 204.511719 197.101562 204.179688 198.5 203.703125 C 199.894531 203.222656 201.226562 202.605469 202.496094 201.847656 C 203.765625 201.089844 204.941406 200.210938 206.027344 199.207031 C 207.109375 198.207031 208.082031 197.101562 208.933594 195.898438 C 210.085938 194.328125 209.207031 191.894531 207.65625 190.988281 Z M 200.117188 194.902344 Z M 200.117188 194.902344 " fill-opacity="1" fill-rule="nonzero"/><path fill="#1e1e54" d="M 156.277344 180.394531 C 155.75 180.367188 155.230469 180.414062 154.71875 180.546875 C 154.207031 180.675781 153.726562 180.878906 153.277344 181.152344 C 152.828125 181.429688 152.429688 181.765625 152.082031 182.164062 C 151.734375 182.5625 151.457031 183.003906 151.242188 183.484375 C 150.875 184.417969 150.667969 185.382812 150.625 186.382812 C 150.054688 185.71875 149.398438 185.160156 148.648438 184.703125 C 148.25 184.476562 147.832031 184.300781 147.390625 184.171875 C 146.953125 184.042969 146.503906 183.972656 146.046875 183.949219 C 145.585938 183.929688 145.132812 183.964844 144.683594 184.050781 C 144.234375 184.140625 143.800781 184.28125 143.382812 184.472656 C 142.96875 184.664062 142.578125 184.898438 142.21875 185.183594 C 141.859375 185.46875 141.539062 185.789062 141.253906 186.152344 C 140.972656 186.511719 140.734375 186.898438 140.542969 187.316406 C 140.355469 187.734375 140.214844 188.167969 140.128906 188.617188 C 139.457031 192.027344 141.472656 194.824219 143.546875 197.339844 C 145.28125 199.40625 147.234375 201.246094 149.398438 202.859375 C 150.402344 203.628906 151.449219 204.332031 152.539062 204.972656 C 154.820312 206.28125 157.355469 205.855469 158.875 203.652344 C 159.679688 202.371094 160.339844 201.015625 160.855469 199.59375 C 161.347656 198.371094 161.734375 197.117188 162.015625 195.832031 C 163.128906 190.691406 163.71875 180.757812 156.277344 180.394531 Z M 156.277344 180.394531 " fill-opacity="1" fill-rule="nonzero"/><path fill="#1e1e54" d="M 240.695312 177.785156 C 238.75 176.523438 236.378906 177.046875 234.71875 178.488281 C 234.128906 179.03125 233.609375 179.636719 233.164062 180.304688 C 233.105469 180.199219 233.042969 180.09375 232.976562 179.992188 C 232.484375 179.171875 231.832031 178.515625 231.015625 178.019531 C 230.199219 177.527344 229.316406 177.25 228.363281 177.195312 C 226.441406 177.132812 224.796875 178.28125 223.699219 179.761719 C 221.816406 182.3125 222.777344 185.589844 223.875 188.230469 C 224.914062 190.832031 226.234375 193.28125 227.835938 195.578125 C 228.160156 196.042969 228.550781 196.4375 229.011719 196.765625 C 229.3125 197.496094 229.804688 198.066406 230.488281 198.46875 C 231.359375 198.972656 232.28125 199.09375 233.253906 198.828125 C 234.152344 198.519531 234.867188 197.96875 235.394531 197.175781 C 237.003906 195.066406 238.535156 192.910156 239.996094 190.710938 C 241.597656 188.300781 243.394531 185.636719 243.238281 182.601562 C 243.230469 181.640625 243.003906 180.734375 242.554688 179.882812 C 242.105469 179.03125 241.484375 178.332031 240.695312 177.785156 Z M 240.695312 177.785156 " fill-opacity="1" fill-rule="nonzero"/></svg>